<svg xmlns="http://www.w3.org/2000/svg" viewBox="0 0 200 200" width="200" height="200">
  <!-- UPPER HALF -->
  <g clip-path="url(#clip-upper-icon)">
    <circle cx="100" cy="100" r="23" fill="none" stroke="#2c5f8d" stroke-width="3.5"/>
    <circle cx="100" cy="77" r="23" fill="none" stroke="#2c5f8d" stroke-width="3.5"/>
    <circle cx="119.9" cy="88.5" r="23" fill="none" stroke="#2c5f8d" stroke-width="3.5"/>
    <circle cx="119.9" cy="111.5" r="23" fill="none" stroke="#2c5f8d" stroke-width="3.5"/>
    <circle cx="100" cy="123" r="23" fill="none" stroke="#2c5f8d" stroke-width="3.5"/>
    <circle cx="80.1" cy="111.5" r="23" fill="none" stroke="#2c5f8d" stroke-width="3.5"/>
    <circle cx="80.1" cy="88.5" r="23" fill="none" stroke="#2c5f8d" stroke-width="3.5"/>
    
    <circle cx="100" cy="54" r="23" fill="none" stroke="#2c5f8d" stroke-width="3.5"/>
    <circle cx="139.8" cy="77" r="23" fill="none" stroke="#2c5f8d" stroke-width="3.5"/>
    <circle cx="139.8" cy="100" r="23" fill="none" stroke="#2c5f8d" stroke-width="3.5"/>
    <circle cx="60.2" cy="77" r="23" fill="none" stroke="#2c5f8d" stroke-width="3.5"/>
    <circle cx="60.2" cy="100" r="23" fill="none" stroke="#2c5f8d" stroke-width="3.5"/>
  </g>
  
  <!-- LOWER HALF -->
  <g clip-path="url(#clip-lower-icon)">
    <circle cx="100" cy="100" r="23" fill="none" stroke="#4a90c8" stroke-width="3" opacity="0.7"/>
    <circle cx="100" cy="123" r="23" fill="none" stroke="#4a90c8" stroke-width="3" opacity="0.7"/>
    <circle cx="119.9" cy="111.5" r="23" fill="none" stroke="#4a90c8" stroke-width="3" opacity="0.7"/>
    <circle cx="119.9" cy="88.5" r="23" fill="none" stroke="#4a90c8" stroke-width="3" opacity="0.7"/>
    <circle cx="100" cy="77" r="23" fill="none" stroke="#4a90c8" stroke-width="3" opacity="0.7"/>
    <circle cx="80.1" cy="88.5" r="23" fill="none" stroke="#4a90c8" stroke-width="3" opacity="0.7"/>
    <circle cx="80.1" cy="111.5" r="23" fill="none" stroke="#4a90c8" stroke-width="3" opacity="0.7"/>
    
    <circle cx="100" cy="146" r="23" fill="none" stroke="#4a90c8" stroke-width="3" opacity="0.7"/>
    <circle cx="139.8" cy="123" r="23" fill="none" stroke="#4a90c8" stroke-width="3" opacity="0.7"/>
    <circle cx="139.8" cy="100" r="23" fill="none" stroke="#4a90c8" stroke-width="3" opacity="0.7"/>
    <circle cx="60.2" cy="123" r="23" fill="none" stroke="#4a90c8" stroke-width="3" opacity="0.7"/>
    <circle cx="60.2" cy="100" r="23" fill="none" stroke="#4a90c8" stroke-width="3" opacity="0.7"/>
  </g>
  
  <circle cx="100" cy="100" r="3.5" fill="#2c5f8d"/>
  
  <defs>
    <clipPath id="clip-upper-icon">
      <rect x="0" y="0" width="200" height="100"/>
    </clipPath>
    <clipPath id="clip-lower-icon">
      <rect x="0" y="100" width="200" height="100"/>
    </clipPath>
  </defs>
</svg>